<?xml version="1.0" standalone="no"?>
<!DOCTYPE svg PUBLIC "-//W3C//DTD SVG 20010904//EN"
 "http://www.w3.org/TR/2001/REC-SVG-20010904/DTD/svg10.dtd">
<svg version="1.0" xmlns="http://www.w3.org/2000/svg"
 width="672.000000pt" height="672.000000pt" viewBox="0 0 672.000000 672.000000"
 preserveAspectRatio="xMidYMid meet">
<metadata>
Created by potrace 1.14, written by Peter Selinger 2001-2017
</metadata>
<g transform="translate(0.000000,672.000000) scale(0.100000,-0.100000)"
fill="#000000" stroke="none">
<path d="M3159 6636 c-2 -2 -27 -6 -56 -10 -107 -12 -364 -78 -413 -105 -8 -4
-91 -38 -185 -75 -93 -37 -179 -71 -190 -76 -11 -5 -56 -23 -100 -40 -44 -18
-89 -36 -100 -40 -68 -30 -172 -72 -180 -74 -5 -2 -19 -7 -30 -11 -11 -5 -85
-35 -165 -67 -80 -33 -149 -61 -155 -62 -5 -2 -19 -7 -30 -11 -73 -31 -212
-87 -220 -89 -5 -1 -20 -8 -32 -14 -13 -7 -23 -10 -23 -7 0 3 -10 -1 -23 -9
-12 -7 -40 -19 -62 -26 -22 -7 -49 -17 -60 -23 -11 -6 -25 -12 -30 -13 -6 -1
-33 -12 -60 -24 -27 -12 -54 -23 -60 -25 -5 -1 -21 -7 -35 -12 -14 -6 -61 -25
-105 -43 -44 -18 -91 -37 -105 -43 -14 -5 -30 -11 -35 -12 -6 -2 -31 -11 -55
-22 -25 -11 -159 -64 -297 -119 -228 -89 -280 -114 -240 -114 8 0 41 -13 75
-30 34 -17 66 -30 71 -30 4 0 21 -6 37 -14 59 -28 311 -136 318 -136 3 0 29
-11 58 -24 29 -14 98 -43 153 -66 55 -22 109 -45 120 -50 25 -11 111 -47 257
-105 62 -25 124 -51 138 -57 14 -6 34 -14 45 -18 11 -4 31 -12 45 -18 14 -5
50 -20 80 -32 30 -11 64 -25 75 -30 11 -5 58 -23 105 -41 47 -17 89 -35 95
-40 5 -5 18 -9 30 -9 12 0 25 -4 30 -9 6 -5 28 -14 50 -21 22 -7 45 -16 50
-20 6 -4 24 -10 40 -14 17 -4 44 -14 60 -21 26 -11 154 -58 235 -85 14 -4 34
-12 45 -16 11 -4 22 -8 25 -9 3 -1 44 -14 92 -29 48 -15 89 -27 90 -26 2 1 15
-3 31 -9 15 -6 38 -13 50 -15 12 -3 33 -7 47 -10 91 -20 152 -29 280 -42 36
-3 69 -9 74 -12 5 -3 6 1 1 8 -6 9 -4 11 5 5 7 -4 38 -9 69 -11 84 -5 497 -5
571 0 207 14 267 20 360 37 30 6 66 12 80 14 45 7 215 55 260 73 14 5 27 9 30
9 5 -1 147 48 185 63 11 5 58 22 105 39 164 58 515 193 549 211 13 7 36 16 61
25 16 6 49 19 77 31 17 8 34 14 37 14 3 0 34 13 68 29 35 15 74 32 88 36 14 4
52 20 85 35 33 15 101 44 150 65 50 20 108 45 130 55 22 10 74 33 115 50 41
18 95 41 120 52 25 10 56 25 70 33 14 7 30 14 35 15 16 4 46 16 115 48 36 17
72 32 80 34 8 2 17 5 20 8 3 3 24 14 48 24 42 19 55 36 27 36 -8 0 -23 4 -33
10 -9 5 -93 39 -187 75 -208 81 -294 115 -320 126 -11 5 -56 22 -100 39 -44
17 -89 35 -100 40 -11 5 -74 30 -140 56 -66 25 -133 52 -150 59 -16 8 -73 30
-125 50 -103 40 -155 62 -182 76 -10 5 -22 9 -27 9 -5 0 -26 8 -47 17 -22 9
-43 18 -49 19 -10 2 -192 76 -230 93 -11 5 -96 39 -190 76 -167 66 -200 80
-269 110 -19 8 -37 15 -40 15 -4 0 -55 20 -114 44 -227 94 -410 163 -492 186
-47 12 -92 25 -100 28 -8 2 -24 6 -35 7 -11 2 -47 8 -80 15 -56 11 -377 24
-386 16z"/>
<path d="M4 5352 c3 -15 12 -70 21 -122 9 -52 18 -108 21 -125 2 -16 7 -41 9
-55 3 -14 8 -36 10 -50 3 -14 8 -41 11 -60 11 -67 18 -104 61 -320 8 -41 16
-86 18 -100 3 -14 13 -70 25 -125 20 -98 45 -225 55 -275 2 -14 7 -36 10 -50
14 -64 17 -79 26 -134 5 -33 12 -62 14 -66 2 -4 7 -22 10 -41 3 -19 15 -81 27
-139 11 -58 22 -116 25 -129 2 -14 6 -27 8 -31 2 -4 7 -29 11 -56 3 -27 10
-59 15 -72 5 -12 8 -26 8 -30 -1 -4 0 -9 1 -12 1 -3 3 -14 5 -25 2 -16 46
-228 80 -390 6 -32 44 -215 55 -269 6 -27 14 -65 20 -85 5 -20 11 -47 14 -61
16 -88 28 -133 76 -278 31 -96 82 -205 106 -229 8 -8 14 -18 14 -23 0 -20 186
-198 260 -250 19 -13 37 -27 40 -30 3 -4 28 -22 55 -40 54 -37 54 -37 101 -75
18 -14 36 -25 42 -25 6 0 12 -4 14 -8 2 -4 68 -54 148 -111 80 -57 147 -108
148 -112 2 -5 8 -9 13 -9 5 0 107 -71 226 -157 120 -86 277 -199 348 -250 72
-52 137 -100 145 -106 9 -7 38 -28 65 -47 28 -18 62 -43 76 -54 14 -12 36 -28
49 -36 24 -16 118 -83 135 -97 6 -5 23 -16 38 -26 16 -10 36 -25 45 -32 9 -8
107 -79 217 -159 110 -80 205 -148 210 -153 6 -4 28 -21 50 -37 22 -17 42 -32
45 -35 28 -32 30 33 16 524 -3 94 -8 251 -11 350 -3 99 -7 227 -10 285 -2 58
-7 159 -10 225 -10 228 -32 586 -41 680 -3 28 -7 79 -9 115 -2 36 -6 83 -9
105 -3 22 -8 67 -11 100 -16 138 -24 206 -31 239 -4 16 -7 43 -8 60 -2 17 -6
40 -9 51 -3 11 -8 31 -11 45 -7 43 -47 172 -69 225 -37 87 -158 326 -198 392
-22 35 -39 65 -39 67 0 5 -120 188 -147 225 -35 48 -127 166 -137 177 -6 6
-25 26 -42 45 -38 42 -72 71 -149 130 -74 57 -232 159 -244 159 -5 0 -11 3
-13 8 -4 9 -176 112 -188 112 -4 0 -13 7 -20 15 -6 8 -15 14 -18 12 -4 -1 -27
10 -52 25 -143 83 -875 453 -1065 538 -11 5 -78 36 -149 70 -70 33 -130 60
-131 60 -2 0 -55 25 -120 55 -64 30 -118 55 -120 55 -2 0 -32 13 -67 30 -35
16 -76 34 -91 39 -26 10 -27 9 -23 -17z"/>
<path d="M6555 5302 c-44 -20 -81 -40 -83 -44 -2 -5 -9 -8 -16 -8 -8 0 -78
-31 -157 -69 -79 -37 -182 -86 -229 -108 -47 -22 -155 -75 -241 -117 -86 -42
-161 -76 -167 -76 -6 0 -12 -3 -14 -7 -1 -5 -91 -52 -198 -106 -107 -53 -238
-120 -290 -148 -52 -28 -138 -74 -190 -101 -52 -28 -107 -59 -122 -70 -14 -10
-29 -18 -32 -18 -10 0 -211 -122 -326 -199 -115 -76 -265 -213 -346 -316 -21
-27 -45 -56 -52 -64 -8 -8 -25 -30 -38 -50 -57 -84 -134 -197 -142 -206 -29
-36 -165 -273 -222 -388 -102 -206 -136 -320 -175 -592 -14 -100 -15 -102 -31
-250 -5 -50 -15 -156 -19 -220 -3 -33 -7 -89 -10 -125 -3 -36 -8 -110 -11
-165 -3 -55 -7 -131 -9 -170 -16 -279 -27 -641 -29 -937 0 -126 -3 -228 -6
-228 -4 0 -5 -356 -1 -383 1 -6 470 325 566 400 44 34 46 36 90 68 22 16 83
60 135 99 52 38 120 88 150 110 30 23 61 47 68 53 7 7 17 13 20 13 4 0 18 10
32 23 14 12 38 30 53 40 16 10 36 25 45 33 9 9 58 45 107 82 50 37 92 70 93
74 2 4 8 8 14 8 5 0 15 6 22 12 7 7 25 22 40 33 15 11 109 82 209 158 100 76
193 145 206 155 13 9 28 22 35 27 6 6 85 68 176 137 204 157 261 207 339 292
46 52 116 156 139 208 29 63 54 122 56 133 1 6 13 44 26 85 13 41 25 84 27 95
2 11 8 38 14 60 12 42 17 64 25 105 6 29 40 176 54 235 6 22 12 51 14 65 3 14
11 54 20 90 8 36 17 76 20 90 5 24 42 193 52 235 2 11 6 31 9 45 6 31 8 40 40
180 14 63 28 131 31 150 2 19 7 43 10 52 8 26 15 61 19 88 2 14 4 25 5 25 1 0
3 11 6 25 2 14 8 45 14 70 5 25 12 56 14 70 3 14 8 36 11 50 3 14 10 48 15 75
6 28 13 61 16 75 9 46 35 175 39 200 3 14 14 68 25 120 11 52 23 106 25 120 2
14 15 79 29 145 23 113 34 173 41 220 2 11 4 20 5 20 2 0 5 16 13 60 3 17 10
55 17 85 19 97 20 110 13 109 -5 0 -44 -17 -88 -37z"/>
</g>
</svg>
